<svg width="80" height="38" viewBox="0 0 80 38" fill="none" xmlns="http://www.w3.org/2000/svg">
<g clip-path="url(#clip0_2384_253)">
<path d="M43.8702 0L25.037 22.9478H17.2363L36.0828 0H43.8702Z" fill="#003F68"/>
<path d="M52.9653 0L34.1135 22.9478L26.249 22.9979L45.1168 0H52.9653Z" fill="#003F68"/>
<path d="M47.793 7.90084L53.4568 22.9979H62.6209L50.775 4.26709L47.793 7.90084Z" fill="#003F68"/>
<path d="M7.09635 30.9542L6.73754 31.1072C6.37874 30.524 5.9588 30.0781 5.41927 29.7244C4.88239 29.355 4.43588 29.2283 3.6412 29.2283C2.61794 29.2283 2.4 29.4051 2.4 30.1678V32.7829H2.78272C4.13821 32.7829 4.67508 32.3897 4.77874 31.3104H5.17475V34.7647H4.77874C4.66445 33.6221 4.19136 33.2658 2.7588 33.2658H2.4V35.9443C2.4 36.8574 2.55415 37.0368 3.30897 37.05H3.65449V37.5197H0V37.05H0.24186C0.996678 37.0368 1.15083 36.86 1.15083 35.9443V30.3076C1.15083 29.4051 0.996678 29.2151 0.24186 29.2151H0V28.7454H6.29103L7.09635 30.9542Z" fill="#003F68"/>
<path d="M11.0589 35.9443C11.0589 36.8468 11.2131 37.0368 11.9679 37.05H12.2868V37.5197H8.65625V37.05H8.89811C9.65293 37.0368 9.80708 36.86 9.80708 35.9443V30.3076C9.80708 29.4051 9.65293 29.2151 8.89811 29.2151H8.65625V28.7454H11.8908C13.1426 28.7454 13.7061 28.8457 14.2562 29.1386C15.0881 29.5951 15.5347 30.2945 15.5347 31.131C15.5347 32.1707 14.8702 32.9333 13.7061 33.2632C13.2064 33.4031 12.7094 33.4664 11.3273 33.4664H11.0589V35.9417V35.9443ZM11.0589 32.9597C11.3539 32.9597 11.3911 32.9597 12.0184 32.9729C13.5413 32.9861 14.1659 32.3765 14.1659 31.094C14.1659 29.8115 13.5652 29.1888 12.2602 29.1888C11.2875 29.1888 11.0589 29.392 11.0589 30.1915V32.9597Z" fill="#003F68"/>
<path d="M17.8576 37.5303C21.2038 35.9813 23.4231 33.6801 24.9247 29.7192C24.9673 29.6057 24.9114 29.5054 24.7679 29.5054C24.5952 29.5054 24.4251 29.5186 23.8536 29.5635C22.7241 29.6638 21.2782 29.8485 19.6623 30.1308C19.3487 30.1889 19.1759 30.2153 18.9898 30.2865C18.8623 30.3446 18.7613 30.371 18.631 30.371C18.4317 30.371 18.1154 30.1863 17.8018 29.83C17.5307 29.5186 17.4297 29.3049 17.3154 28.8219L17.544 28.7085C17.9879 29.1201 18.2031 29.2046 18.9021 29.1914C19.4443 29.1782 20.231 29.1333 20.8902 29.0779C22.0065 29.0067 23.2795 28.8932 24.4809 28.7665C24.8237 28.7375 25.0098 28.6821 25.1958 28.4974C25.3526 28.3707 25.4669 28.3258 25.5387 28.3258C25.6822 28.3258 25.9533 28.4815 26.2536 28.7243C26.6842 29.0647 26.8543 29.2494 26.8543 29.4632C26.8543 29.5899 26.6815 29.7482 26.4955 29.8458C26.2962 29.9593 26.1367 30.0886 25.9958 30.4132C23.9493 34.9996 21.3473 36.8336 18.0144 37.8417L17.8576 37.5303Z" fill="#003F68"/>
<path d="M28.2465 31.2022C28.5309 31.3843 28.7489 31.4503 29.0917 31.4503C29.4904 31.4397 30.0831 31.4054 30.7236 31.3606C31.4306 31.3051 32.1376 31.2471 32.6532 31.2022C33.0412 31.1679 33.3708 31.1336 33.7376 31.0993C33.8279 31.0888 33.8758 31.0545 33.9422 31.0096C34.022 30.9542 34.0911 30.8961 34.1469 30.8961C34.2612 30.8961 34.4552 31.0201 34.7396 31.2814C35.0585 31.5875 35.1834 31.7907 35.1834 31.9279C35.1834 32.052 35.0798 32.1443 34.8406 32.176C34.6572 32.2103 34.5323 32.2314 34.3489 32.3449C33.6871 32.7645 33.0944 33.2051 32.2253 33.6353C31.8266 35.4245 31.2206 36.7967 29.5887 37.839L29.4186 37.6464C30.5828 36.5592 31.1303 35.2345 31.4492 33.5456C31.4838 33.3529 31.4838 33.2395 31.4838 33.1603C31.4944 33.0257 31.4731 32.9333 31.4279 32.8779C31.3243 32.7645 31.1436 32.6747 30.9043 32.6299L30.915 32.4267C31.0399 32.4029 31.2233 32.3924 31.3482 32.3924C31.4838 32.3924 31.6911 32.4372 31.8399 32.4953C31.9887 32.5533 32.1137 32.6088 32.2173 32.6642C32.3768 32.7539 32.4459 32.812 32.4459 32.8806C32.4459 32.936 32.4352 32.9492 32.4007 32.994C32.3661 33.0389 32.3661 33.0626 32.3449 33.1181C32.3342 33.1524 32.321 33.1867 32.3103 33.2421C32.8818 32.812 33.3602 32.3686 33.9077 31.7458C33.9183 31.7221 33.9316 31.7115 33.9316 31.6904C33.9316 31.6456 33.897 31.6113 33.8412 31.6218C32.3236 31.7458 31.218 31.8699 29.9156 32.0308C29.5276 32.0863 29.4027 32.1206 29.3097 32.1654C29.1954 32.1997 29.105 32.2551 29.0253 32.2551C28.9004 32.2551 28.6931 32.1206 28.4432 31.8593C28.2838 31.701 28.1801 31.5189 28.0791 31.3395L28.2492 31.2049L28.2465 31.2022Z" fill="#003F68"/>
<path d="M36.1648 35.0365C37.608 34.0892 38.9661 32.8594 40.0983 31.6746C40.8505 30.9067 41.5761 30.0306 42.0651 29.3207C42.1608 29.1782 42.1953 29.0832 42.1953 28.9882C42.1953 28.8826 42.0412 28.7032 41.5628 28.5976L41.5734 28.3733C41.7754 28.3496 41.9668 28.3258 42.1342 28.3258C42.2884 28.3258 42.4452 28.3364 42.586 28.3971C43.0511 28.5396 43.588 28.9644 43.588 29.2363C43.588 29.4131 43.5056 29.4975 43.3621 29.5556C43.2186 29.6136 43.1123 29.6849 42.8492 30.0042C42.3601 30.561 42.0279 30.9278 41.491 31.4608C41.8737 31.6983 41.9561 31.8514 41.9561 32.0282C41.9561 32.1232 41.9216 32.3713 41.9216 32.7143C41.9216 33.1524 41.9216 33.9097 41.9322 34.7014C41.9322 35.6725 41.9561 36.6542 41.9561 37.116C41.9561 37.6728 41.802 37.839 41.5043 37.839C41.2066 37.839 40.909 37.4379 40.909 36.7624C40.909 36.6806 40.9329 36.4774 40.9674 36.3243C40.9913 36.1818 41.0259 35.9813 41.0259 35.5195C41.0498 34.6908 41.0605 33.6617 41.0605 32.4293C41.0605 32.205 41.0365 32.0493 40.9887 31.9438C39.402 33.4242 37.9242 34.5008 36.3163 35.2688L36.1621 35.0313L36.1648 35.0365Z" fill="#003F68"/>
<path d="M49.6369 28.6399C49.993 28.5106 50.2774 28.4288 50.4794 28.4288C50.6814 28.4288 50.894 28.4763 51.2156 28.6293C51.5372 28.7956 51.6913 28.9486 51.6913 29.1017C51.6913 29.1835 51.6568 29.2679 51.5717 29.3603C51.4654 29.5265 51.4176 29.7139 51.4043 29.9145C51.3804 30.5029 51.3697 31.0809 51.3565 31.6218C52.2468 31.5506 52.7571 31.5268 53.2674 31.4688C53.5651 31.4345 53.6714 31.4107 53.8495 31.3395C53.9452 31.3052 54.0515 31.2682 54.1339 31.2682C54.288 31.2682 54.5618 31.35 54.8329 31.4688C55.1651 31.6218 55.2953 31.7881 55.2953 32.0229C55.2953 32.2103 55.1173 32.3185 54.8913 32.3185C54.7717 32.3185 54.5937 32.271 54.0727 32.2235C53.5864 32.176 53.0521 32.1654 52.4834 32.1654C52.1033 32.1654 51.7126 32.1654 51.3192 32.1892C51.2475 33.5561 51.0694 34.3452 50.7505 35.0181C50.1684 36.2188 49.0309 37.211 47.0827 37.847L46.9525 37.5884C48.4834 36.8574 49.48 35.7965 49.884 34.8439C50.2402 34.0074 50.3598 33.1814 50.405 32.2631C49.5279 32.3449 48.5897 32.4636 47.9359 32.5586C47.6275 32.6061 47.4149 32.6642 47.2608 32.7354C47.1305 32.7829 47.0242 32.8304 46.894 32.8304C46.7159 32.8304 46.3119 32.5718 46.0169 32.2657C45.8867 32.1232 45.791 31.9464 45.7432 31.6878L45.9319 31.606C46.2163 31.8646 46.4182 31.9464 46.8089 31.9464C47.0588 31.9464 47.2847 31.9359 47.6275 31.9121C48.4701 31.854 49.4907 31.7696 50.4289 31.6878C50.4395 31.3236 50.4528 30.97 50.4528 30.6032C50.4528 30.2364 50.4422 29.8485 50.4289 29.4368C50.4182 29.0252 50.2747 28.8959 49.6448 28.9064L49.6342 28.6478L49.6369 28.6399Z" fill="#003F68"/>
<path d="M57.5496 28.9064C58.2619 28.9935 58.6765 29.099 59.1363 29.289C59.9363 29.6427 60.4573 30.2021 60.4573 30.8196C60.4573 31.3342 60.1755 31.6588 59.745 31.6746C59.4048 31.6746 59.1815 31.5136 58.9742 30.9542C58.6925 30.2021 58.129 29.5107 57.4619 29.1888L57.5496 28.909V28.9064ZM67.7503 29.7007C65.8074 32.6747 63.5111 34.7489 60.2181 36.8838C59.9656 37.0447 59.8034 37.1793 59.6838 37.3403C59.5802 37.4722 59.4314 37.562 59.2692 37.562C58.9875 37.562 58.4985 37.2374 57.935 36.5302C57.6985 36.2346 57.6373 35.9417 57.624 35.6171L57.8606 35.4983C58.1583 35.8229 58.5118 36.0736 58.7642 36.0736C58.9583 36.0736 59.2533 35.9865 59.5802 35.7939C62.5755 34.0575 65.422 31.8039 67.4526 29.4949L67.7503 29.7007Z" fill="#003F68"/>
<path d="M70.1529 29.07C70.3044 29.2046 70.4692 29.3233 70.7084 29.4447C70.8732 29.5345 71.0832 29.5635 71.3702 29.5635C71.5961 29.5477 72.0772 29.5345 72.4227 29.5028C73.3104 29.4421 74.7244 29.3075 75.9284 29.1756C76.335 29.1307 76.4546 29.07 76.7257 28.8325C76.8453 28.7138 76.9968 28.6821 77.0872 28.6821C77.2227 28.6821 77.4938 28.7877 77.8393 29.07C78.2593 29.4131 78.3656 29.5767 78.3656 29.7429C78.3656 29.8933 78.2752 29.9831 78.0041 30.086C77.7622 30.1757 77.5682 30.3393 77.3715 30.6243C76.7549 31.5057 76.032 32.4768 75.2958 33.2975C76.9649 33.9097 78.3789 34.7621 79.2958 35.6118C79.6573 35.9549 79.8513 36.3138 79.8513 36.7017C79.8513 37.0289 79.6094 37.3746 79.2347 37.3746C78.9928 37.3746 78.7244 37.269 78.4533 36.8521C77.5948 35.6118 76.3031 34.419 74.9476 33.6854C73.2626 35.4482 71.2612 36.8363 68.4041 37.657L68.2686 37.3271C70.6313 36.2531 72.3749 34.9072 74.1051 32.936C74.7377 32.205 75.5935 31.0835 76.242 30.0227C76.2712 29.9936 76.2712 29.9778 76.2712 29.9488C76.2712 29.9197 76.226 29.8881 76.1516 29.8881C74.5729 30.0965 73.4593 30.2628 72.6619 30.3657C72.1809 30.4396 71.8034 30.5161 71.5483 30.619C71.4127 30.6797 71.2931 30.7088 71.1868 30.7088C70.9902 30.7088 70.735 30.5293 70.4506 30.2311C70.1795 29.9329 70.044 29.6796 69.9855 29.5002C69.9563 29.3946 69.9111 29.26 69.9111 29.1729L70.1529 29.0674V29.07Z" fill="#003F68"/>
</g>
<defs>
<clipPath id="clip0_2384_253">
<rect width="80" height="38" fill="white"/>
</clipPath>
</defs>
</svg>
