<svg width="354" height="40" viewBox="0 0 354 40" fill="none" xmlns="http://www.w3.org/2000/svg">
<g clip-path="url(#clip0_2301_1362)">
<path d="M45.1583 0L13.2259 39.0676H0L31.9555 0H45.1583Z" fill="#003F68"/>
<path d="M60.5796 0L28.6164 39.0676L15.2822 39.1524L47.2687 0H60.5796Z" fill="#003F68"/>
<path d="M51.8135 13.4465L61.4141 39.1526H76.9512L56.8689 7.2666L51.8135 13.4465Z" fill="#003F68"/>
<path d="M115.524 17.3377L114.349 17.8386C113.174 15.9199 111.79 14.4558 110.036 13.2845C108.273 12.0748 106.812 11.6587 104.207 11.6587C100.853 11.6587 100.141 12.2443 100.141 14.7486V23.3558H101.401C105.846 23.3558 107.601 22.0613 107.941 18.509H109.24V29.8748H107.941C107.562 26.1144 106.016 24.9432 101.316 24.9432H100.141V33.7584C100.141 36.7636 100.644 37.3493 103.117 37.3955H104.246V38.9443H92.2568V37.3955H93.053C95.5266 37.357 96.029 36.7713 96.029 33.7584V15.211C96.029 12.2443 95.5266 11.6201 93.053 11.6201H92.2568V10.0713H112.88L115.524 17.3377Z" fill="#003F68"/>
<path d="M128.511 33.7509C128.511 36.7175 129.013 37.3417 131.487 37.3879H132.538V38.9368H120.634V37.3879H121.43C123.904 37.3494 124.406 36.7638 124.406 33.7509V15.2034C124.406 12.2367 123.904 11.6126 121.43 11.6126H120.634V10.0637H131.239C135.344 10.0637 137.191 10.3951 138.992 11.3583C141.713 12.8609 143.182 15.1572 143.182 17.9158C143.182 21.3448 141.002 23.8491 137.191 24.9356C135.56 25.398 133.922 25.606 129.392 25.606H128.511V33.7509ZM128.511 23.9339C129.477 23.9339 129.601 23.9339 131.657 23.9724C136.642 24.0109 138.699 22.0075 138.699 17.7925C138.699 13.5775 136.728 11.5278 132.453 11.5278C129.268 11.5278 128.511 12.1982 128.511 14.8258V23.9339Z" fill="#003F68"/>
<path d="M150.788 38.9751C161.756 33.8817 169.022 26.307 173.946 13.2691C174.086 12.8915 173.9 12.5679 173.429 12.5679C172.864 12.5679 172.3 12.6141 170.429 12.7528C166.727 13.0764 161.988 13.6852 156.693 14.6253C155.665 14.8102 155.101 14.9027 154.49 15.1415C154.065 15.3265 153.74 15.419 153.315 15.419C152.658 15.419 151.63 14.8102 150.594 13.6389C149.705 12.6141 149.373 11.9129 149.002 10.3178L149.752 9.94024C151.205 11.2964 151.908 11.5738 154.204 11.5276C155.982 11.4814 158.564 11.3427 160.721 11.15C164.377 10.9189 168.551 10.5413 172.485 10.1252C173.614 10.0327 174.217 9.84777 174.828 9.23903C175.346 8.81521 175.717 8.67651 175.956 8.67651C176.428 8.67651 177.317 9.19279 178.298 9.98647C179.705 11.1115 180.27 11.7125 180.27 12.4138C180.27 12.8376 179.705 13.3461 179.095 13.6775C178.438 14.0551 177.92 14.4712 177.456 15.5499C170.754 30.6453 162.22 36.6788 151.29 39.9923L150.772 38.9674L150.788 38.9751Z" fill="#003F68"/>
<path d="M184.846 18.1546C185.781 18.7479 186.492 18.9714 187.613 18.9714C188.919 18.9329 190.867 18.825 192.962 18.6709C195.281 18.4859 197.6 18.301 199.285 18.1469C200.561 18.039 201.643 17.9234 202.841 17.8078C203.142 17.7693 203.289 17.6614 203.513 17.5073C203.776 17.3224 204 17.1375 204.186 17.1375C204.557 17.1375 205.199 17.5458 206.134 18.4012C207.177 19.4106 207.595 20.081 207.595 20.5279C207.595 20.9363 207.255 21.2369 206.474 21.3447C205.879 21.4526 205.461 21.5297 204.866 21.9072C202.694 23.2866 200.754 24.7429 197.909 26.1608C196.603 32.0479 194.616 36.5634 189.267 39.9924L188.703 39.3605C192.522 35.7851 194.315 31.4237 195.358 25.8679C195.467 25.2361 195.467 24.8585 195.467 24.5965C195.505 24.1496 195.428 23.8491 195.281 23.6641C194.941 23.2943 194.346 22.9937 193.557 22.8473L193.596 22.1769C194.006 22.0999 194.609 22.0691 195.018 22.0691C195.467 22.0691 196.139 22.2155 196.626 22.4081C197.113 22.6008 197.523 22.778 197.863 22.9706C198.389 23.2711 198.613 23.4561 198.613 23.6795C198.613 23.8645 198.574 23.903 198.466 24.0494C198.358 24.1958 198.358 24.2729 198.28 24.4578C198.242 24.5657 198.203 24.6813 198.172 24.8662C200.043 23.4484 201.612 21.992 203.405 19.9423C203.444 19.8652 203.483 19.8344 203.483 19.7574C203.483 19.611 203.367 19.4954 203.181 19.5339C198.211 19.9423 194.578 20.3507 190.318 20.8747C189.043 21.0596 188.633 21.1752 188.34 21.3216C187.969 21.4372 187.667 21.6221 187.404 21.6221C186.995 21.6221 186.322 21.1752 185.495 20.3199C184.969 19.7959 184.637 19.2026 184.297 18.6015L184.861 18.1546H184.846Z" fill="#003F68"/>
<path d="M210.795 30.7686C215.526 27.6555 219.978 23.6023 223.688 19.7033C226.147 17.1758 228.535 14.2862 230.135 11.9514C230.444 11.4814 230.568 11.1731 230.568 10.8572C230.568 10.5105 230.058 9.92483 228.496 9.57037L228.535 8.83063C229.2 8.75357 229.826 8.67651 230.375 8.67651C230.885 8.67651 231.387 8.71504 231.859 8.90768C233.382 9.37773 235.144 10.7802 235.144 11.674C235.144 12.2596 234.874 12.5293 234.402 12.722C233.931 12.9146 233.583 13.1535 232.725 14.2015C231.125 16.0354 230.027 17.2375 228.272 18.9944C229.525 19.7726 229.795 20.2812 229.795 20.8668C229.795 21.1751 229.679 21.9996 229.679 23.1246C229.679 24.5656 229.679 27.0622 229.718 29.6667C229.718 32.8568 229.795 36.0932 229.795 37.6112C229.795 39.4452 229.285 39.9845 228.311 39.9845C227.337 39.9845 226.355 38.6592 226.355 36.4399C226.355 36.1703 226.433 35.5076 226.549 34.999C226.626 34.5289 226.742 33.8663 226.742 32.3483C226.819 29.6205 226.858 26.23 226.858 22.1845C226.858 21.4448 226.78 20.9362 226.626 20.5894C221.431 25.4594 216.585 29.004 211.313 31.5315L210.803 30.7532L210.795 30.7686Z" fill="#003F68"/>
<path d="M254.957 9.71684C256.124 9.29303 257.059 9.01562 257.716 9.01562C258.373 9.01562 259.077 9.16974 260.128 9.67831C261.179 10.2177 261.682 10.7263 261.682 11.2271C261.682 11.4968 261.566 11.7665 261.295 12.0825C260.947 12.6219 260.793 13.246 260.754 13.9087C260.677 15.8505 260.638 17.7461 260.599 19.5338C263.514 19.3027 265.191 19.2256 266.861 19.033C267.835 18.9174 268.182 18.8403 268.77 18.6092C269.079 18.4936 269.435 18.378 269.705 18.378C270.208 18.378 271.104 18.6477 272.001 19.0407C273.091 19.5415 273.516 20.0886 273.516 20.8669C273.516 21.4834 272.936 21.8378 272.194 21.8378C271.808 21.8378 271.22 21.6837 269.512 21.5296C267.92 21.3755 266.165 21.337 264.302 21.337C263.058 21.337 261.774 21.337 260.491 21.414C260.259 25.9141 259.672 28.5109 258.621 30.7224C256.711 34.6754 252.978 37.9349 246.6 40.0308L246.175 39.1755C251.192 36.7714 254.462 33.2807 255.784 30.1445C256.951 27.3936 257.337 24.6812 257.492 21.6529C254.616 21.9226 251.54 22.3156 249.399 22.6238C248.386 22.7779 247.69 22.9705 247.18 23.2017C246.755 23.3558 246.4 23.5099 245.974 23.5099C245.395 23.5099 244.065 22.6546 243.099 21.6452C242.674 21.1828 242.357 20.5972 242.202 19.7419L242.821 19.4722C243.756 20.3275 244.413 20.5972 245.696 20.5972C246.515 20.5972 247.25 20.5587 248.378 20.4816C251.138 20.289 254.485 20.0193 257.554 19.7419C257.592 18.5398 257.631 17.3762 257.631 16.1742C257.631 14.9721 257.592 13.693 257.554 12.3368C257.515 10.9806 257.051 10.5568 254.987 10.5953L254.949 9.73996L254.957 9.71684Z" fill="#003F68"/>
<path d="M280.89 10.5952C283.225 10.888 284.585 11.2271 286.093 11.8589C288.721 13.0225 290.421 14.8641 290.421 16.8984C290.421 18.5937 289.502 19.6571 288.087 19.711C286.966 19.711 286.24 19.1793 285.559 17.3377C284.64 14.8641 282.792 12.591 280.604 11.5276L280.898 10.6106L280.89 10.5952ZM314.322 13.2074C307.953 22.9936 300.424 29.8208 289.633 36.8483C288.806 37.38 288.273 37.8193 287.886 38.3509C287.546 38.7902 287.059 39.0753 286.526 39.0753C285.606 39.0753 283.998 38.0119 282.15 35.6848C281.37 34.7139 281.177 33.7507 281.13 32.6796L281.911 32.2943C282.885 33.3577 284.052 34.1822 284.879 34.1822C285.513 34.1822 286.479 33.8894 287.554 33.2652C297.371 27.5476 306.701 20.1348 313.356 12.5293L314.33 13.2074H314.322Z" fill="#003F68"/>
<path d="M322.199 11.1347C322.693 11.574 323.235 11.967 324.023 12.3599C324.564 12.6528 325.252 12.7529 326.195 12.7529C326.937 12.7067 328.514 12.6528 329.643 12.5526C332.549 12.3522 337.187 11.913 341.129 11.4738C342.459 11.3274 342.853 11.127 343.742 10.3411C344.136 9.94807 344.631 9.8479 344.925 9.8479C345.365 9.8479 346.254 10.1947 347.391 11.127C348.774 12.2598 349.114 12.7992 349.114 13.3386C349.114 13.8317 348.821 14.1245 347.932 14.4713C347.143 14.7641 346.502 15.3035 345.86 16.2436C343.835 19.1409 341.469 22.3388 339.058 25.0434C344.531 27.0623 349.169 29.8595 352.175 32.6643C353.358 33.797 354 34.976 354 36.2551C354 37.3339 353.211 38.4667 351.974 38.4667C351.186 38.4667 350.297 38.1199 349.408 36.7483C346.594 32.672 342.358 28.7344 337.921 26.3303C332.402 32.1326 325.84 36.7021 316.471 39.4068L316.03 38.328C323.768 34.7911 329.488 30.368 335.162 23.8799C337.233 21.468 340.039 17.7847 342.165 14.2941C342.266 14.1939 342.266 14.1476 342.266 14.0475C342.266 13.9473 342.119 13.8471 341.871 13.8471C336.692 14.5329 333.044 15.0723 330.431 15.4191C328.854 15.6657 327.617 15.9122 326.783 16.2513C326.342 16.4516 325.948 16.5441 325.6 16.5441C324.958 16.5441 324.124 15.9508 323.18 14.9722C322.292 13.9858 321.851 13.1536 321.65 12.5603C321.549 12.2135 321.403 11.7743 321.403 11.4815L322.191 11.1347H322.199Z" fill="#003F68"/>
</g>
<defs>
<clipPath id="clip0_2301_1362">
<rect width="354" height="40" fill="white"/>
</clipPath>
</defs>
</svg>
