<svg width="134" height="64" viewBox="0 0 134 64" fill="none" xmlns="http://www.w3.org/2000/svg">
<g clip-path="url(#clip0_2301_1343)">
<path d="M73.4819 0L41.9362 38.6489H28.8701L60.438 0H73.4819Z" fill="#003F68"/>
<path d="M88.7156 0L57.1388 38.6489L43.9658 38.7333L75.5693 0H88.7156Z" fill="#003F68"/>
<path d="M80.0527 13.3067L89.5396 38.7333H104.889L85.0477 7.18668L80.0527 13.3067Z" fill="#003F68"/>
<path d="M11.8864 52.1333L11.2854 52.3911C10.6844 51.4089 9.981 50.6578 9.07728 50.0622C8.17801 49.44 7.4301 49.2267 6.099 49.2267C4.38505 49.2267 4.02 49.5244 4.02 50.8089V55.2133H4.66106C6.9315 55.2133 7.83076 54.5511 8.00439 52.7333H8.66771V58.5511H8.00439C7.81296 56.6267 7.02053 56.0267 4.621 56.0267H4.02V60.5378C4.02 62.0756 4.27821 62.3778 5.54252 62.4H6.12126V63.1911H0V62.4H0.405116C1.66944 62.3778 1.92764 62.08 1.92764 60.5378V51.0444C1.92764 49.5244 1.66944 49.2044 0.405116 49.2044H0V48.4133H10.5375L11.8864 52.1333Z" fill="#003F68"/>
<path d="M18.5245 60.5378C18.5245 62.0578 18.7827 62.3778 20.047 62.4H20.5812V63.1911H14.5V62.4H14.9051C16.1694 62.3778 16.4276 62.08 16.4276 60.5378V51.0444C16.4276 49.5244 16.1694 49.2044 14.9051 49.2044H14.5V48.4133H19.9179C22.0147 48.4133 22.9585 48.5822 23.88 49.0756C25.2734 49.8444 26.0213 51.0222 26.0213 52.4311C26.0213 54.1822 24.9084 55.4667 22.9585 56.0222C22.1215 56.2578 21.289 56.3644 18.9741 56.3644H18.5245V60.5333V60.5378ZM18.5245 55.5111C19.0186 55.5111 19.0809 55.5111 20.1316 55.5333C22.6825 55.5556 23.7286 54.5289 23.7286 52.3689C23.7286 50.2089 22.7225 49.16 20.5367 49.16C18.9073 49.16 18.5245 49.5022 18.5245 50.8489V55.5111Z" fill="#003F68"/>
<path d="M29.9121 63.2089C35.5169 60.6 39.2342 56.7244 41.7495 50.0533C41.8207 49.8622 41.7272 49.6933 41.4868 49.6933C41.1975 49.6933 40.9125 49.7156 39.9554 49.7911C38.0634 49.96 35.6416 50.2711 32.9349 50.7467C32.4096 50.8444 32.1202 50.8889 31.8086 51.0089C31.5949 51.1067 31.4257 51.1511 31.2076 51.1511C30.8737 51.1511 30.3439 50.84 29.8186 50.24C29.3645 49.7156 29.1953 49.3556 29.0039 48.5422L29.3868 48.3511C30.1302 49.0444 30.4908 49.1867 31.6616 49.1644C32.5698 49.1422 33.8876 49.0667 34.9916 48.9733C36.8614 48.8533 38.9938 48.6622 41.006 48.4489C41.5803 48.4 41.8919 48.3067 42.2036 47.9956C42.4662 47.7822 42.6577 47.7067 42.7779 47.7067C43.0183 47.7067 43.4723 47.9689 43.9754 48.3778C44.6966 48.9511 44.9815 49.2622 44.9815 49.6222C44.9815 49.8356 44.6921 50.1022 44.3805 50.2667C44.0466 50.4578 43.7795 50.6756 43.5436 51.2222C40.1157 58.9467 35.7573 62.0356 30.1747 63.7333L29.9121 63.2089Z" fill="#003F68"/>
<path d="M47.3137 52.5511C47.79 52.8578 48.1551 52.9689 48.7293 52.9689C49.3971 52.9511 50.3899 52.8933 51.4628 52.8178C52.647 52.7244 53.8311 52.6267 54.6948 52.5511C55.3448 52.4933 55.8968 52.4356 56.5111 52.3778C56.6625 52.36 56.7426 52.3022 56.8539 52.2267C56.9875 52.1333 57.1032 52.0356 57.1967 52.0356C57.3882 52.0356 57.7131 52.2444 58.1895 52.6844C58.7237 53.2 58.9329 53.5422 58.9329 53.7733C58.9329 53.9822 58.7593 54.1378 58.3586 54.1911C58.0515 54.2489 57.8422 54.2844 57.5351 54.4756C56.4266 55.1822 55.4338 55.9244 53.9781 56.6489C53.3103 59.6622 52.2953 61.9733 49.5618 63.7289L49.2769 63.4044C51.2268 61.5733 52.1439 59.3422 52.6781 56.4978C52.736 56.1733 52.736 55.9822 52.736 55.8489C52.7538 55.6222 52.7182 55.4667 52.6425 55.3733C52.4689 55.1822 52.1662 55.0311 51.7655 54.9556L51.7833 54.6133C51.9925 54.5733 52.2997 54.5556 52.5089 54.5556C52.736 54.5556 53.0832 54.6311 53.3325 54.7289C53.5818 54.8267 53.7911 54.92 53.9647 55.0133C54.2318 55.1644 54.3476 55.2622 54.3476 55.3778C54.3476 55.4711 54.3297 55.4933 54.2719 55.5689C54.214 55.6444 54.214 55.6844 54.1784 55.7778C54.1606 55.8356 54.1383 55.8933 54.1205 55.9867C55.0777 55.2622 55.879 54.5156 56.7961 53.4667C56.8139 53.4267 56.8361 53.4089 56.8361 53.3733C56.8361 53.2978 56.7783 53.24 56.6848 53.2578C54.1428 53.4667 52.2908 53.6756 50.1094 53.9467C49.4594 54.04 49.2502 54.0978 49.0944 54.1733C48.903 54.2311 48.7516 54.3244 48.6181 54.3244C48.4088 54.3244 48.0616 54.0978 47.6431 53.6578C47.376 53.3911 47.2024 53.0844 47.0332 52.7822L47.3181 52.5556L47.3137 52.5511Z" fill="#003F68"/>
<path d="M60.5757 59.0089C62.9931 57.4133 65.268 55.3422 67.1644 53.3467C68.4243 52.0533 69.6397 50.5778 70.4588 49.3822C70.6191 49.1422 70.6769 48.9822 70.6769 48.8222C70.6769 48.6444 70.4187 48.3422 69.6174 48.1644L69.6352 47.7867C69.9735 47.7467 70.2941 47.7067 70.5745 47.7067C70.8328 47.7067 71.0954 47.7244 71.3314 47.8267C72.1104 48.0667 73.0097 48.7822 73.0097 49.24C73.0097 49.5378 72.8717 49.68 72.6313 49.7778C72.3909 49.8756 72.2128 49.9956 71.7721 50.5333C70.953 51.4711 70.3965 52.0889 69.4972 52.9867C70.1383 53.3867 70.2763 53.6444 70.2763 53.9422C70.2763 54.1022 70.2184 54.52 70.2184 55.0978C70.2184 55.8356 70.2184 57.1111 70.2362 58.4444C70.2362 60.08 70.2763 61.7333 70.2763 62.5111C70.2763 63.4489 70.0181 63.7289 69.5195 63.7289C69.0209 63.7289 68.5223 63.0533 68.5223 61.9156C68.5223 61.7778 68.5623 61.4356 68.6202 61.1778C68.6603 60.9378 68.7181 60.6 68.7181 59.8222C68.7582 58.4267 68.776 56.6933 68.776 54.6178C68.776 54.24 68.7359 53.9778 68.6558 53.8C65.9981 56.2933 63.5229 58.1067 60.8295 59.4L60.5713 59L60.5757 59.0089Z" fill="#003F68"/>
<path d="M83.142 48.2356C83.7386 48.0178 84.2149 47.88 84.5533 47.88C84.8916 47.88 85.2478 47.96 85.7864 48.2178C86.3251 48.4978 86.5833 48.7556 86.5833 49.0133C86.5833 49.1511 86.5254 49.2933 86.383 49.4489C86.2049 49.7289 86.1248 50.0444 86.1025 50.3822C86.0624 51.3733 86.0446 52.3467 86.0224 53.2578C87.5137 53.1378 88.3685 53.0978 89.2232 53C89.7218 52.9422 89.8999 52.9022 90.1982 52.7822C90.3585 52.7244 90.5365 52.6622 90.6745 52.6622C90.9327 52.6622 91.3913 52.8 91.8454 53C92.4018 53.2578 92.62 53.5378 92.62 53.9333C92.62 54.2489 92.3217 54.4311 91.9433 54.4311C91.743 54.4311 91.4447 54.3511 90.5721 54.2711C89.7575 54.1911 88.8626 54.1733 87.91 54.1733C87.2733 54.1733 86.6189 54.1733 85.96 54.2133C85.8398 56.5156 85.5416 57.8444 85.0074 58.9778C84.0324 61 82.127 62.6711 78.8638 63.7422L78.6457 63.3067C81.21 62.0756 82.8794 60.2889 83.5561 58.6844C84.1526 57.2756 84.3529 55.8844 84.4286 54.3378C82.9595 54.4756 81.388 54.6756 80.2929 54.8356C79.7765 54.9156 79.4203 55.0133 79.1621 55.1333C78.944 55.2133 78.7659 55.2933 78.5478 55.2933C78.2495 55.2933 77.5728 54.8578 77.0787 54.3422C76.8605 54.1022 76.7003 53.8044 76.6201 53.3689L76.9362 53.2311C77.4125 53.6667 77.7509 53.8044 78.4053 53.8044C78.8238 53.8044 79.2022 53.7867 79.7765 53.7467C81.1877 53.6489 82.8972 53.5067 84.4687 53.3689C84.4865 52.7556 84.5088 52.16 84.5088 51.5422C84.5088 50.9244 84.491 50.2711 84.4687 49.5778C84.4509 48.8844 84.2105 48.6667 83.1554 48.6844L83.1376 48.2489L83.142 48.2356Z" fill="#003F68"/>
<path d="M96.395 48.6844C97.588 48.8311 98.2825 49.0089 99.0527 49.3289C100.393 49.9244 101.265 50.8667 101.265 51.9067C101.265 52.7733 100.793 53.32 100.072 53.3467C99.5023 53.3467 99.1284 53.0756 98.7811 52.1333C98.3092 50.8667 97.3655 49.7022 96.248 49.16L96.395 48.6889V48.6844ZM113.481 50.0222C110.227 55.0311 106.38 58.5244 100.865 62.12C100.442 62.3911 100.17 62.6178 99.9698 62.8889C99.7962 63.1111 99.5469 63.2622 99.2753 63.2622C98.8034 63.2622 97.9843 62.7156 97.0405 61.5244C96.6443 61.0267 96.5419 60.5333 96.5196 59.9867L96.9158 59.7867C97.4144 60.3333 98.0065 60.7556 98.4294 60.7556C98.7544 60.7556 99.2486 60.6089 99.7962 60.2844C104.813 57.36 109.581 53.5644 112.982 49.6756L113.481 50.0222Z" fill="#003F68"/>
<path d="M117.506 48.96C117.76 49.1867 118.036 49.3867 118.436 49.5911C118.712 49.7422 119.064 49.7911 119.545 49.7911C119.923 49.7644 120.729 49.7422 121.308 49.6889C122.795 49.5867 125.163 49.36 127.18 49.1378C127.861 49.0622 128.061 48.96 128.515 48.56C128.716 48.36 128.969 48.3067 129.121 48.3067C129.348 48.3067 129.802 48.4844 130.381 48.96C131.084 49.5378 131.262 49.8133 131.262 50.0933C131.262 50.3467 131.111 50.4978 130.657 50.6711C130.252 50.8222 129.927 51.0978 129.597 51.5778C128.564 53.0622 127.353 54.6978 126.12 56.08C128.916 57.1111 131.284 58.5467 132.82 59.9778C133.426 60.5556 133.751 61.16 133.751 61.8133C133.751 62.3644 133.346 62.9467 132.718 62.9467C132.313 62.9467 131.863 62.7689 131.409 62.0667C129.971 59.9778 127.807 57.9689 125.537 56.7333C122.715 59.7022 119.362 62.04 114.577 63.4222L114.35 62.8667C118.307 61.0578 121.228 58.7911 124.126 55.4711C125.185 54.24 126.619 52.3511 127.705 50.5644C127.754 50.5156 127.754 50.4889 127.754 50.44C127.754 50.3911 127.678 50.3378 127.554 50.3378C124.909 50.6889 123.044 50.9689 121.708 51.1422C120.903 51.2667 120.271 51.3956 119.843 51.5689C119.616 51.6711 119.416 51.72 119.238 51.72C118.908 51.72 118.481 51.4178 118.005 50.9156C117.55 50.4133 117.323 49.9867 117.225 49.6844C117.177 49.5067 117.101 49.28 117.101 49.1333L117.506 48.9556V48.96Z" fill="#003F68"/>
</g>
<defs>
<clipPath id="clip0_2301_1343">
<rect width="134" height="64" fill="white"/>
</clipPath>
</defs>
</svg>
