<svg width="291" height="32" viewBox="0 0 291 32" fill="none" xmlns="http://www.w3.org/2000/svg">
<g clip-path="url(#clip0_2385_927)">
<path d="M37.4941 0L11.3348 31.2541H0.5L26.6783 0H37.4941Z" fill="#003F68"/>
<path d="M50.1276 0L23.943 31.2541L13.0195 31.3219L39.2231 0H50.1276Z" fill="#003F68"/>
<path d="M42.9463 10.7574L50.8112 31.3222H63.5394L47.0877 5.81348L42.9463 10.7574Z" fill="#003F68"/>
<path d="M95.1378 13.8703L94.1752 14.271C93.2127 12.736 92.0792 11.5647 90.6417 10.6277C89.198 9.6599 88.0011 9.32702 85.8671 9.32702C83.1188 9.32702 82.5362 9.79552 82.5362 11.799V18.6848H83.5684C87.2096 18.6848 88.647 17.6491 88.9257 14.8073H89.9895V23.8999H88.9257C88.6154 20.8917 87.3489 19.9546 83.4988 19.9546H82.5362V27.0069C82.5362 29.411 82.9478 29.8795 84.9742 29.9165H85.8988V31.1556H76.0771V29.9165H76.7294C78.7558 29.8857 79.1674 29.4172 79.1674 27.0069V12.1689C79.1674 9.79552 78.7558 9.2962 76.7294 9.2962H76.0771V8.05713H92.9721L95.1378 13.8703Z" fill="#003F68"/>
<path d="M105.777 27.001C105.777 29.3743 106.189 29.8737 108.215 29.9106H109.076V31.1497H99.3242V29.9106H99.9765C102.003 29.8798 102.414 29.4113 102.414 27.001V12.163C102.414 9.78966 102.003 9.29034 99.9765 9.29034H99.3242V8.05127H108.012C111.375 8.05127 112.888 8.31634 114.364 9.08691C116.593 10.289 117.796 12.126 117.796 14.3329C117.796 17.0761 116.01 19.0796 112.888 19.9488C111.552 20.3187 110.21 20.4851 106.499 20.4851H105.777V27.001ZM105.777 19.1474C106.569 19.1474 106.67 19.1474 108.354 19.1782C112.439 19.209 114.123 17.6063 114.123 14.2343C114.123 10.8623 112.508 9.22253 109.007 9.22253C106.398 9.22253 105.777 9.75884 105.777 11.8609V19.1474Z" fill="#003F68"/>
<path d="M124.026 31.1803C133.012 27.1055 138.964 21.0458 142.998 10.6155C143.112 10.3134 142.96 10.0545 142.574 10.0545C142.112 10.0545 141.649 10.0915 140.117 10.2024C137.084 10.4613 133.202 10.9483 128.864 11.7004C128.022 11.8484 127.56 11.9223 127.06 12.1134C126.711 12.2614 126.445 12.3354 126.097 12.3354C125.559 12.3354 124.717 11.8484 123.868 10.9114C123.14 10.0915 122.867 9.5305 122.563 8.25445L123.178 7.95239C124.368 9.03734 124.944 9.25926 126.825 9.22228C128.282 9.18529 130.397 9.07433 132.163 8.92022C135.159 8.73528 138.578 8.43322 141.801 8.10034C142.726 8.02636 143.22 7.87841 143.72 7.39142C144.144 7.05237 144.448 6.94141 144.645 6.94141C145.031 6.94141 145.759 7.35443 146.563 7.98937C147.716 8.88939 148.178 9.37023 148.178 9.9312C148.178 10.2702 147.716 10.6771 147.216 10.9422C146.677 11.2442 146.253 11.5771 145.873 12.4402C140.383 24.5164 133.392 29.3433 124.438 31.994L124.014 31.1741L124.026 31.1803Z" fill="#003F68"/>
<path d="M151.927 14.5237C152.693 14.9983 153.276 15.1771 154.194 15.1771C155.264 15.1463 156.86 15.06 158.576 14.9367C160.476 14.7888 162.376 14.6408 163.756 14.5175C164.801 14.4312 165.688 14.3387 166.669 14.2463C166.916 14.2155 167.036 14.1291 167.22 14.0059C167.435 13.8579 167.619 13.71 167.771 13.71C168.075 13.71 168.6 14.0367 169.367 14.7209C170.222 15.5285 170.563 16.0648 170.563 16.4223C170.563 16.7491 170.285 16.9895 169.645 17.0758C169.158 17.1621 168.816 17.2237 168.328 17.5258C166.549 18.6292 164.959 19.7943 162.629 20.9286C161.559 25.6383 159.931 29.2507 155.549 31.9939L155.087 31.4884C158.215 28.6281 159.684 25.139 160.539 20.6944C160.628 20.1889 160.628 19.8868 160.628 19.6772C160.66 19.3197 160.596 19.0793 160.476 18.9313C160.197 18.6354 159.71 18.395 159.064 18.2779L159.095 17.7416C159.431 17.6799 159.925 17.6553 160.261 17.6553C160.628 17.6553 161.179 17.7724 161.578 17.9265C161.977 18.0806 162.312 18.2224 162.591 18.3765C163.022 18.6169 163.205 18.7649 163.205 18.9436C163.205 19.0916 163.174 19.1224 163.085 19.2395C162.996 19.3567 162.996 19.4183 162.933 19.5663C162.901 19.6526 162.87 19.745 162.844 19.893C164.377 18.7587 165.662 17.5936 167.131 15.9538C167.163 15.8922 167.195 15.8675 167.195 15.8059C167.195 15.6888 167.1 15.5963 166.948 15.6271C162.876 15.9538 159.9 16.2806 156.411 16.6998C155.366 16.8477 155.03 16.9402 154.789 17.0573C154.485 17.1498 154.238 17.2977 154.023 17.2977C153.688 17.2977 153.137 16.9402 152.459 16.2559C152.028 15.8367 151.756 15.3621 151.478 14.8812L151.94 14.5237H151.927Z" fill="#003F68"/>
<path d="M173.185 24.6151C177.06 22.1246 180.707 18.8821 183.747 15.7628C185.761 13.7409 187.717 11.4292 189.028 9.56133C189.282 9.18529 189.383 8.93871 189.383 8.68596C189.383 8.40856 188.965 7.94006 187.686 7.65649L187.717 7.0647C188.262 7.00305 188.775 6.94141 189.225 6.94141C189.643 6.94141 190.054 6.97223 190.44 7.12634C191.688 7.50238 193.132 8.62432 193.132 9.3394C193.132 9.80791 192.91 10.0237 192.524 10.1778C192.138 10.3319 191.853 10.523 191.15 11.3614C189.839 12.8285 188.94 13.7902 187.502 15.1957C188.528 15.8183 188.75 16.2252 188.75 16.6937C188.75 16.9403 188.655 17.5999 188.655 18.4999C188.655 19.6526 188.655 21.6499 188.686 23.7335C188.686 26.2857 188.75 28.8748 188.75 30.0892C188.75 31.5563 188.332 31.9878 187.534 31.9878C186.736 31.9878 185.932 30.9275 185.932 29.1522C185.932 28.9364 185.995 28.4062 186.09 27.9994C186.153 27.6234 186.248 27.0932 186.248 25.8788C186.312 23.6966 186.343 20.9842 186.343 17.7478C186.343 17.156 186.28 16.7492 186.153 16.4717C181.898 20.3677 177.928 23.2034 173.609 25.2254L173.191 24.6027L173.185 24.6151Z" fill="#003F68"/>
<path d="M209.363 7.77337C210.319 7.43432 211.085 7.2124 211.623 7.2124C212.162 7.2124 212.738 7.33569 213.599 7.74255C214.46 8.17407 214.872 8.58092 214.872 8.98162C214.872 9.19738 214.777 9.41313 214.555 9.66588C214.27 10.0974 214.144 10.5967 214.112 11.1269C214.049 12.6803 214.017 14.1968 213.985 15.627C216.373 15.442 217.747 15.3804 219.115 15.2263C219.912 15.1338 220.197 15.0722 220.679 14.8872C220.932 14.7948 221.223 14.7023 221.445 14.7023C221.856 14.7023 222.591 14.918 223.326 15.2324C224.218 15.6331 224.567 16.0708 224.567 16.6934C224.567 17.1866 224.092 17.4702 223.484 17.4702C223.167 17.4702 222.686 17.3469 221.287 17.2236C219.982 17.1003 218.545 17.0695 217.018 17.0695C215.999 17.0695 214.948 17.0695 213.897 17.1311C213.707 20.7312 213.225 22.8086 212.364 24.5778C210.8 27.7402 207.741 30.3478 202.517 32.0246L202.169 31.3403C206.279 29.417 208.957 26.6245 210.04 24.1155C210.996 21.9148 211.313 19.7449 211.44 17.3222C209.084 17.538 206.564 17.8524 204.81 18.0989C203.98 18.2222 203.41 18.3763 202.992 18.5613C202.644 18.6846 202.353 18.8079 202.004 18.8079C201.529 18.8079 200.44 18.1236 199.649 17.316C199.3 16.9462 199.041 16.4777 198.914 15.7934L199.421 15.5777C200.187 16.2619 200.725 16.4777 201.776 16.4777C202.448 16.4777 203.049 16.4468 203.974 16.3852C206.234 16.2311 208.976 16.0153 211.49 15.7934C211.522 14.8317 211.554 13.9009 211.554 12.9392C211.554 11.9776 211.522 10.9543 211.49 9.86931C211.459 8.78435 211.079 8.44531 209.388 8.47613L209.356 7.79187L209.363 7.77337Z" fill="#003F68"/>
<path d="M230.607 8.47656C232.52 8.71081 233.634 8.98205 234.869 9.48754C237.022 10.4184 238.415 11.8917 238.415 13.5191C238.415 14.8753 237.662 15.726 236.503 15.7692C235.585 15.7692 234.989 15.3438 234.432 13.8705C233.679 11.8917 232.165 10.0732 230.373 9.22247L230.614 8.48889L230.607 8.47656ZM257.995 10.5663C252.777 18.3953 246.609 23.857 237.769 29.4791C237.092 29.9044 236.655 30.2558 236.338 30.6811C236.06 31.0325 235.661 31.2606 235.224 31.2606C234.47 31.2606 233.153 30.4099 231.64 28.5482C231 27.7715 230.842 27.0009 230.804 26.1441L231.443 25.8358C232.241 26.6865 233.197 27.3461 233.875 27.3461C234.394 27.3461 235.186 27.1119 236.066 26.6126C244.108 22.0385 251.751 16.1082 257.204 10.0239L258.001 10.5663H257.995Z" fill="#003F68"/>
<path d="M264.448 8.90789C264.853 9.25927 265.296 9.57366 265.942 9.88805C266.386 10.1223 266.949 10.2024 267.722 10.2024C268.33 10.1655 269.621 10.1223 270.546 10.0422C272.927 9.88189 276.726 9.53051 279.956 9.17913C281.045 9.06201 281.368 8.90173 282.096 8.27295C282.419 7.95856 282.825 7.87842 283.065 7.87842C283.426 7.87842 284.154 8.15582 285.085 8.90173C286.219 9.80791 286.497 10.2394 286.497 10.6709C286.497 11.0655 286.257 11.2997 285.528 11.5771C284.883 11.8114 284.357 12.2429 283.831 12.995C282.172 15.3128 280.235 17.8711 278.259 20.0348C282.742 21.6499 286.542 23.8877 289.005 26.1315C289.974 27.0377 290.499 27.9809 290.499 29.0042C290.499 29.8672 289.854 30.7734 288.84 30.7734C288.194 30.7734 287.466 30.496 286.738 29.3987C284.433 26.1377 280.963 22.9876 277.328 21.0643C272.807 25.7062 267.43 29.3618 259.755 31.5255L259.395 30.6625C265.733 27.833 270.419 24.2945 275.067 19.104C276.764 17.1745 279.063 14.2279 280.804 11.4353C280.887 11.3552 280.887 11.3182 280.887 11.2381C280.887 11.1579 280.766 11.0778 280.564 11.0778C276.321 11.6264 273.332 12.058 271.192 12.3354C269.9 12.5326 268.887 12.7299 268.203 13.0011C267.842 13.1614 267.519 13.2354 267.234 13.2354C266.708 13.2354 266.025 12.7607 265.252 11.9778C264.524 11.1888 264.163 10.523 263.998 10.0483C263.916 9.77092 263.796 9.41955 263.796 9.1853L264.441 8.90789H264.448Z" fill="#003F68"/>
</g>
<defs>
<clipPath id="clip0_2385_927">
<rect width="290" height="32" fill="white" transform="translate(0.5)"/>
</clipPath>
</defs>
</svg>
